<?xml version="1.0" standalone="no"?>
<!DOCTYPE svg PUBLIC "-//W3C//DTD SVG 20010904//EN"
 "http://www.w3.org/TR/2001/REC-SVG-20010904/DTD/svg10.dtd">
<svg version="1.0" xmlns="http://www.w3.org/2000/svg"
 width="32.000000pt" height="32.000000pt" viewBox="0 0 32.000000 32.000000"
 preserveAspectRatio="xMidYMid meet">

<g transform="translate(0.000000,32.000000) scale(0.100000,-0.100000)"
fill="#000000" stroke="none">
<path d="M130 290 c0 -5 -18 -10 -40 -10 -22 0 -40 -4 -40 -10 0 -5 5 -10 10
-10 6 0 10 -42 10 -106 0 -128 4 -134 90 -134 86 0 90 6 90 134 0 64 4 106 10
106 6 0 10 5 10 10 0 6 -18 10 -40 10 -22 0 -40 5 -40 10 0 6 -13 10 -30 10
-16 0 -30 -4 -30 -10z m11 -112 l19 -21 20 23 c11 13 23 20 27 17 3 -4 -4 -16
-17 -27 l-23 -20 23 -20 c13 -11 20 -23 17 -27 -4 -3 -16 4 -27 17 l-20 23
-20 -23 c-11 -13 -23 -20 -27 -17 -3 4 4 16 17 27 l23 20 -21 19 c-12 10 -22
21 -22 25 0 12 13 6 31 -16z"/>
</g>
</svg>
